<svg width="26" height="18" viewBox="0 0 26 18" fill="none" xmlns="http://www.w3.org/2000/svg">
<path d="M26 0H0V6H26V0Z" fill="#FF9933"/>
<path d="M26 6.00012H0V12.0001H26V6.00012Z" fill="white"/>
<path d="M26 12.0002H0V18.0002H26V12.0002Z" fill="#128807"/>
<path d="M12.9115 11.3109C11.6811 11.3109 10.6837 10.2728 10.6837 8.99219C10.6837 7.71159 11.6811 6.67346 12.9115 6.67346C14.1419 6.67346 15.1393 7.71159 15.1393 8.99219C15.1393 10.2728 14.1419 11.3109 12.9115 11.3109Z" fill="#000088"/>
<path d="M12.9117 11.0209C11.8351 11.0209 10.9624 10.1125 10.9624 8.99202C10.9624 7.8715 11.8351 6.96313 12.9117 6.96313C13.9883 6.96313 14.861 7.8715 14.861 8.99202C14.861 10.1125 13.9883 11.0209 12.9117 11.0209Z" fill="white"/>
<path d="M12.9119 9.3981C12.6965 9.3981 12.522 9.21643 12.522 8.99232C12.522 8.76822 12.6965 8.58655 12.9119 8.58655C13.1272 8.58655 13.3017 8.76822 13.3017 8.99232C13.3017 9.21643 13.1272 9.3981 12.9119 9.3981Z" fill="#000088"/>
<path d="M10.9926 9.36139C10.9377 9.36891 10.8874 9.32869 10.8802 9.27156C10.8729 9.21442 10.9116 9.16201 10.9665 9.15449C11.0214 9.14697 11.0717 9.18719 11.0789 9.24432C11.0862 9.30145 11.0475 9.35387 10.9926 9.36139Z" fill="#000088"/>
<path d="M12.912 11.0211L12.8451 9.8038L12.912 9.22412L12.9788 9.8038L12.912 11.0211Z" fill="#000088"/>
<path d="M11.1512 9.8673C11.1008 9.88858 11.0422 9.86206 11.0203 9.80805C10.9983 9.75404 11.0215 9.69301 11.0719 9.67172C11.1223 9.65043 11.1809 9.67696 11.2029 9.73097C11.2248 9.78497 11.2017 9.84601 11.1512 9.8673Z" fill="#000088"/>
<path d="M13.4197 10.9535L13.0512 9.79275L12.9663 9.21525L13.1739 9.75921L13.4197 10.9535Z" fill="#000088"/>
<path d="M11.4286 10.312C11.3854 10.3463 11.3224 10.3363 11.288 10.2897C11.2536 10.2432 11.2606 10.1777 11.3038 10.1434C11.347 10.1092 11.4099 10.1192 11.4444 10.1657C11.4788 10.2123 11.4718 10.2778 11.4286 10.312Z" fill="#000088"/>
<path d="M13.8888 10.751L13.2454 9.72792L13.0213 9.19167L13.3569 9.66147L13.8888 10.751Z" fill="#000088"/>
<path d="M11.8069 10.6671C11.7738 10.7121 11.7109 10.7195 11.6663 10.6837C11.6217 10.6479 11.6124 10.5824 11.6454 10.5374C11.6785 10.4924 11.7414 10.485 11.786 10.5208C11.8306 10.5566 11.8399 10.6221 11.8069 10.6671Z" fill="#000088"/>
<path d="M14.2922 10.4282L13.4175 9.61279L13.0685 9.15427L13.5091 9.51762L14.2922 10.4282Z" fill="#000088"/>
<path d="M12.2575 10.9048C12.2355 10.959 12.1769 10.9858 12.1265 10.9646C12.0761 10.9435 12.0531 10.8825 12.0751 10.8283C12.0971 10.7741 12.1558 10.7474 12.2061 10.7685C12.2565 10.7896 12.2795 10.8507 12.2575 10.9048Z" fill="#000088"/>
<path d="M14.5982 10.0037L13.5523 9.46149L13.1057 9.11047L13.622 9.33576L14.5982 10.0037Z" fill="#000088"/>
<path d="M12.7562 11.0156C12.7482 11.0736 12.6978 11.1154 12.6437 11.1088C12.5896 11.1023 12.5522 11.0499 12.5602 10.9918C12.5682 10.9337 12.6186 10.8919 12.6727 10.8985C12.7268 10.9051 12.7642 10.9575 12.7562 11.0156Z" fill="#000088"/>
<path d="M14.7937 9.51345L13.6471 9.27517L13.1282 9.0565L13.6838 9.13263L14.7937 9.51345Z" fill="#000088"/>
<path d="M13.2677 10.9885C13.274 11.0448 13.2339 11.0972 13.1781 11.1055C13.1224 11.1139 13.072 11.0751 13.0657 11.0188C13.0593 10.9625 13.0994 10.9101 13.1552 10.9017C13.211 10.8933 13.2614 10.9322 13.2677 10.9885Z" fill="#000088"/>
<path d="M14.8594 8.98108L13.6903 9.05463L13.1355 9.00353L13.6929 8.93795L14.8594 8.98108Z" fill="#000088"/>
<path d="M13.7516 10.8257C13.7724 10.8786 13.7474 10.9396 13.6959 10.962C13.6443 10.9844 13.5856 10.9596 13.5649 10.9067C13.5441 10.8538 13.5691 10.7928 13.6206 10.7704C13.6722 10.748 13.7308 10.7728 13.7516 10.8257Z" fill="#000088"/>
<path d="M14.7952 8.46521L13.6812 8.84801L13.1262 8.93335L13.6479 8.71666L14.7952 8.46521Z" fill="#000088"/>
<path d="M14.1772 10.539C14.2117 10.5855 14.2046 10.651 14.1615 10.6853C14.1183 10.7195 14.0553 10.7095 14.0209 10.6629C13.9864 10.6164 13.9935 10.5509 14.0367 10.5166C14.0798 10.4824 14.1428 10.4924 14.1772 10.539Z" fill="#000088"/>
<path d="M14.5985 7.98029L13.6223 8.64827L13.1061 8.87354L13.5527 8.52252L14.5985 7.98029Z" fill="#000088"/>
<path d="M14.5185 10.1449C14.5632 10.1809 14.5727 10.2464 14.5397 10.2912C14.5068 10.3361 14.4439 10.3434 14.3992 10.3075C14.3545 10.2715 14.345 10.206 14.3779 10.1612C14.4109 10.1163 14.4738 10.109 14.5185 10.1449Z" fill="#000088"/>
<path d="M14.2889 7.55876L13.5131 8.46805L13.0714 8.82563L13.4152 8.36587L14.2889 7.55876Z" fill="#000088"/>
<path d="M14.7504 9.6725C14.8022 9.69516 14.8275 9.7562 14.8069 9.80883C14.7863 9.86145 14.7276 9.88573 14.6759 9.86307C14.6241 9.8404 14.5989 9.77936 14.6195 9.72674C14.6401 9.67411 14.6987 9.64983 14.7504 9.6725Z" fill="#000088"/>
<path d="M13.8849 7.23641L13.362 8.32505L13.0251 8.7905L13.2429 8.25332L13.8849 7.23641Z" fill="#000088"/>
<path d="M14.8568 9.15358C14.9123 9.1617 14.952 9.21411 14.9454 9.27065C14.9387 9.32719 14.8884 9.36644 14.8329 9.35833C14.7774 9.35021 14.7377 9.29779 14.7443 9.24126C14.7509 9.18472 14.8013 9.14546 14.8568 9.15358Z" fill="#000088"/>
<path d="M13.4144 7.03285L13.1824 8.22641L12.9727 8.76699L13.048 8.18877L13.4144 7.03285Z" fill="#000088"/>
<path d="M14.8295 8.62159C14.8835 8.61491 14.9339 8.65649 14.942 8.71446C14.9501 8.77243 14.9129 8.82485 14.8589 8.83153C14.8049 8.83821 14.7546 8.79663 14.7465 8.73866C14.7383 8.68068 14.7755 8.62827 14.8295 8.62159Z" fill="#000088"/>
<path d="M12.9008 6.9646L12.9716 8.1815L12.9229 8.75916L12.86 8.17904L12.9008 6.9646Z" fill="#000088"/>
<path d="M14.6726 8.11712C14.723 8.09581 14.7816 8.1223 14.8036 8.17628C14.8255 8.23026 14.8024 8.2913 14.752 8.31261C14.7016 8.33392 14.643 8.30744 14.621 8.25345C14.5991 8.19947 14.6222 8.13844 14.6726 8.11712Z" fill="#000088"/>
<path d="M12.4041 7.03103L12.7726 8.19169L12.8576 8.7692L12.6501 8.22531L12.4041 7.03103Z" fill="#000088"/>
<path d="M14.3952 7.67263C14.4383 7.63837 14.5012 7.64832 14.5357 7.69486C14.5702 7.7414 14.5632 7.8069 14.52 7.84116C14.4769 7.87542 14.414 7.86547 14.3795 7.81893C14.345 7.77239 14.352 7.70689 14.3952 7.67263Z" fill="#000088"/>
<path d="M11.9349 7.23409L12.5783 8.25715L12.8026 8.79341L12.4671 8.32365L11.9349 7.23409Z" fill="#000088"/>
<path d="M14.0168 7.3173C14.0497 7.27238 14.1126 7.26505 14.1573 7.30093C14.202 7.33681 14.2116 7.40231 14.1786 7.44723C14.1457 7.49215 14.0828 7.49948 14.0381 7.4636C13.9934 7.42772 13.9838 7.36222 14.0168 7.3173Z" fill="#000088"/>
<path d="M11.5319 7.55619L12.4067 8.37191L12.7561 8.83037L12.3156 8.46678L11.5319 7.55619Z" fill="#000088"/>
<path d="M13.5659 7.07883C13.5879 7.02467 13.6465 6.99789 13.6969 7.01902C13.7473 7.04015 13.7703 7.10118 13.7483 7.15535C13.7263 7.20951 13.6676 7.23629 13.6173 7.21516C13.5669 7.19403 13.5439 7.13299 13.5659 7.07883Z" fill="#000088"/>
<path d="M11.2253 7.98053L12.2711 8.52276L12.7177 8.87377L12.2014 8.6485L11.2253 7.98053Z" fill="#000088"/>
<path d="M13.0672 6.96882C13.0752 6.91073 13.1256 6.86896 13.1797 6.87553C13.2338 6.8821 13.2712 6.93451 13.2632 6.9926C13.2552 7.05069 13.2048 7.09245 13.1507 7.08589C13.0966 7.07932 13.0592 7.02691 13.0672 6.96882Z" fill="#000088"/>
<path d="M11.0297 8.47094L12.1763 8.7092L12.6952 8.92787L12.1396 8.85175L11.0297 8.47094Z" fill="#000088"/>
<path d="M12.5555 6.99614C12.5493 6.93999 12.5895 6.88757 12.6454 6.87907C12.7013 6.87057 12.7516 6.90919 12.7579 6.96534C12.7641 7.0215 12.7239 7.07391 12.668 7.08241C12.6121 7.09092 12.5617 7.05229 12.5555 6.99614Z" fill="#000088"/>
<path d="M10.9641 9.00503L12.1332 8.93104L12.6877 8.98004L12.1302 9.04517L10.9641 9.00503Z" fill="#000088"/>
<path d="M12.0715 7.15946C12.0509 7.10672 12.0761 7.04568 12.1278 7.02313C12.1795 7.00059 12.2381 7.02508 12.2587 7.07783C12.2794 7.13058 12.2542 7.19161 12.2025 7.21416C12.1508 7.2367 12.0922 7.21221 12.0715 7.15946Z" fill="#000088"/>
<path d="M11.028 9.51984L12.1425 9.13679L12.6975 9.05028L12.1753 9.26671L11.028 9.51984Z" fill="#000088"/>
<path d="M11.6447 7.4477C11.6114 7.40239 11.6203 7.33689 11.6647 7.3014C11.709 7.26592 11.7719 7.27388 11.8052 7.3192C11.8385 7.36451 11.8296 7.43001 11.7853 7.4655C11.741 7.50098 11.678 7.49302 11.6447 7.4477Z" fill="#000088"/>
<path d="M11.2234 10.0081L12.2046 9.33876L12.7201 9.10721L12.27 9.45687L11.2234 10.0081Z" fill="#000088"/>
<path d="M11.3034 7.84159C11.2599 7.80692 11.2522 7.74142 11.2863 7.69529C11.3204 7.64916 11.3834 7.63986 11.4269 7.67453C11.4704 7.7092 11.4781 7.7747 11.444 7.82083C11.4099 7.86696 11.3469 7.87626 11.3034 7.84159Z" fill="#000088"/>
<path d="M11.5325 10.4278L12.3143 9.51753L12.7551 9.15533L12.4071 9.61409L11.5325 10.4278Z" fill="#000088"/>
<path d="M11.0716 8.31336C11.0209 8.2917 10.9972 8.23067 11.0187 8.17703C11.0403 8.12339 11.099 8.09746 11.1497 8.11912C11.2005 8.14077 11.2242 8.20181 11.2026 8.25545C11.1811 8.30908 11.1224 8.33501 11.0716 8.31336Z" fill="#000088"/>
<path d="M11.9361 10.7495L12.4655 9.66023L12.8015 9.19186L12.5792 9.72842L11.9361 10.7495Z" fill="#000088"/>
<path d="M10.9653 8.83242C10.9108 8.8253 10.8727 8.77289 10.8803 8.71535C10.8879 8.65782 10.9383 8.61695 10.9928 8.62407C11.0473 8.63119 11.0854 8.6836 11.0778 8.74114C11.0702 8.79867 11.0198 8.83954 10.9653 8.83242Z" fill="#000088"/>
<path d="M12.406 10.9527L12.6476 9.75865L12.8558 9.21582L12.7738 9.79356L12.406 10.9527Z" fill="#000088"/>
</svg>
