<svg width="26" height="18" viewBox="0 0 26 18" fill="none" xmlns="http://www.w3.org/2000/svg">
<path d="M26 0H0V17.2941H26V0Z" fill="#B31942"/>
<path d="M0 1.99548H26H0ZM26 4.65612H0H26ZM0 7.31675H26H0ZM26 9.97738H0H26ZM0 12.638H26H0ZM26 15.2987H0H26Z" fill="#000008"/>
<path d="M0 1.99548H26M26 4.65612H0M0 7.31675H26M26 9.97738H0M0 12.638H26M26 15.2987H0" stroke="white" stroke-width="1.33032"/>
<path d="M13.1435 0H0V9.31222H13.1435V0Z" fill="#0A3161"/>
<path d="M1.09529 0.399048L1.40806 1.36167L0.589203 0.766738H1.60137L0.782509 1.36167L1.09529 0.399048Z" fill="white"/>
<path d="M1.09513 2.26147L1.40791 3.2241L0.58905 2.62917H1.60122L0.782357 3.2241L1.09513 2.26147Z" fill="white"/>
<path d="M1.09513 4.1239L1.40791 5.08653L0.58905 4.49159H1.60122L0.782357 5.08653L1.09513 4.1239Z" fill="white"/>
<path d="M1.09513 5.98633L1.40791 6.94895L0.58905 6.35402H1.60122L0.782357 6.94895L1.09513 5.98633Z" fill="white"/>
<path d="M1.09513 7.84888L1.40791 8.8115L0.58905 8.21657H1.60122L0.782357 8.8115L1.09513 7.84888Z" fill="white"/>
<path d="M2.19013 1.33032L2.50291 2.29295L1.68405 1.69801H2.69622L1.87736 2.29295L2.19013 1.33032Z" fill="white"/>
<path d="M2.19013 3.19275L2.50291 4.15538L1.68405 3.56044H2.69622L1.87736 4.15538L2.19013 3.19275Z" fill="white"/>
<path d="M2.19013 5.0553L2.50291 6.01792L1.68405 5.42299H2.69622L1.87736 6.01792L2.19013 5.0553Z" fill="white"/>
<path d="M2.19013 6.91772L2.50291 7.88035L1.68405 7.28542H2.69622L1.87736 7.88035L2.19013 6.91772Z" fill="white"/>
<path d="M3.28569 0.399048L3.59846 1.36167L2.7796 0.766738H3.79177L2.97291 1.36167L3.28569 0.399048Z" fill="white"/>
<path d="M3.28565 2.26147L3.59843 3.2241L2.77957 2.62917H3.79174L2.97288 3.2241L3.28565 2.26147Z" fill="white"/>
<path d="M3.28565 4.12402L3.59843 5.08665L2.77957 4.49171H3.79174L2.97288 5.08665L3.28565 4.12402Z" fill="white"/>
<path d="M3.28565 5.98645L3.59843 6.94908L2.77957 6.35414H3.79174L2.97288 6.94908L3.28565 5.98645Z" fill="white"/>
<path d="M3.28565 7.84888L3.59843 8.8115L2.77957 8.21657H3.79174L2.97288 8.8115L3.28565 7.84888Z" fill="white"/>
<path d="M4.38108 1.33032L4.69386 2.29295L3.875 1.69801H4.88717L4.06831 2.29295L4.38108 1.33032Z" fill="white"/>
<path d="M4.38127 3.19275L4.69404 4.15538L3.87518 3.56044H4.88735L4.06849 4.15538L4.38127 3.19275Z" fill="white"/>
<path d="M4.38127 5.05518L4.69404 6.0178L3.87518 5.42287H4.88735L4.06849 6.0178L4.38127 5.05518Z" fill="white"/>
<path d="M4.38127 6.91772L4.69404 7.88035L3.87518 7.28542H4.88735L4.06849 7.88035L4.38127 6.91772Z" fill="white"/>
<path d="M5.47627 0.399048L5.78904 1.36167L4.97018 0.766738H5.98235L5.16349 1.36167L5.47627 0.399048Z" fill="white"/>
<path d="M5.47645 2.26147L5.78923 3.2241L4.97037 2.62917H5.98253L5.16367 3.2241L5.47645 2.26147Z" fill="white"/>
<path d="M5.47645 4.1239L5.78923 5.08653L4.97037 4.49159H5.98253L5.16367 5.08653L5.47645 4.1239Z" fill="white"/>
<path d="M5.47645 5.98645L5.78923 6.94908L4.97037 6.35414H5.98253L5.16367 6.94908L5.47645 5.98645Z" fill="white"/>
<path d="M5.47645 7.84888L5.78923 8.8115L4.97037 8.21657H5.98253L5.16367 8.8115L5.47645 7.84888Z" fill="white"/>
<path d="M6.57185 1.33032L6.88463 2.29295L6.06577 1.69801H7.07793L6.25907 2.29295L6.57185 1.33032Z" fill="white"/>
<path d="M6.5717 3.19275L6.88447 4.15538L6.06561 3.56044H7.07778L6.25892 4.15538L6.5717 3.19275Z" fill="white"/>
<path d="M6.5717 5.05518L6.88447 6.0178L6.06561 5.42287H7.07778L6.25892 6.0178L6.5717 5.05518Z" fill="white"/>
<path d="M6.5717 6.91772L6.88447 7.88035L6.06561 7.28542H7.07778L6.25892 7.88035L6.5717 6.91772Z" fill="white"/>
<path d="M7.66712 0.39917L7.9799 1.3618L7.16104 0.76686H8.17321L7.35435 1.3618L7.66712 0.39917Z" fill="white"/>
<path d="M7.66685 2.2616L7.97963 3.22422L7.16077 2.62929H8.17293L7.35407 3.22422L7.66685 2.2616Z" fill="white"/>
<path d="M7.66685 4.12415L7.97963 5.08677L7.16077 4.49184H8.17293L7.35407 5.08677L7.66685 4.12415Z" fill="white"/>
<path d="M7.66685 5.98657L7.97963 6.9492L7.16077 6.35426H8.17293L7.35407 6.9492L7.66685 5.98657Z" fill="white"/>
<path d="M7.66685 7.849L7.97963 8.81163L7.16077 8.21669H8.17293L7.35407 8.81163L7.66685 7.849Z" fill="white"/>
<path d="M8.76222 1.33044L9.07499 2.29307L8.25613 1.69813H9.2683L8.44944 2.29307L8.76222 1.33044Z" fill="white"/>
<path d="M8.76219 3.19287L9.07496 4.1555L8.2561 3.56056H9.26827L8.44941 4.1555L8.76219 3.19287Z" fill="white"/>
<path d="M8.76219 5.0553L9.07496 6.01792L8.2561 5.42299H9.26827L8.44941 6.01792L8.76219 5.0553Z" fill="white"/>
<path d="M8.76219 6.91772L9.07496 7.88035L8.2561 7.28542H9.26827L8.44941 7.88035L8.76219 6.91772Z" fill="white"/>
<path d="M9.85731 0.39917L10.1701 1.3618L9.35123 0.76686H10.3634L9.54453 1.3618L9.85731 0.39917Z" fill="white"/>
<path d="M9.85713 2.2616L10.1699 3.22422L9.35104 2.62929H10.3632L9.54435 3.22422L9.85713 2.2616Z" fill="white"/>
<path d="M9.85713 4.12402L10.1699 5.08665L9.35104 4.49171H10.3632L9.54435 5.08665L9.85713 4.12402Z" fill="white"/>
<path d="M9.85713 5.98645L10.1699 6.94908L9.35104 6.35414H10.3632L9.54435 6.94908L9.85713 5.98645Z" fill="white"/>
<path d="M9.85719 7.84888L10.17 8.8115L9.3511 8.21657H10.3633L9.54441 8.8115L9.85719 7.84888Z" fill="white"/>
<path d="M10.9525 1.33032L11.2653 2.29295L10.4464 1.69801H11.4586L10.6397 2.29295L10.9525 1.33032Z" fill="white"/>
<path d="M10.9525 3.19275L11.2652 4.15538L10.4464 3.56044H11.4585L10.6397 4.15538L10.9525 3.19275Z" fill="white"/>
<path d="M10.9525 5.05518L11.2652 6.0178L10.4464 5.42287H11.4585L10.6397 6.0178L10.9525 5.05518Z" fill="white"/>
<path d="M10.9525 6.91772L11.2652 7.88035L10.4464 7.28542H11.4585L10.6397 7.88035L10.9525 6.91772Z" fill="white"/>
<path d="M12.0482 0.399048L12.361 1.36167L11.5421 0.766738H12.5543L11.7354 1.36167L12.0482 0.399048Z" fill="white"/>
<path d="M12.048 2.26147L12.3608 3.2241L11.542 2.62917H12.5541L11.7353 3.2241L12.048 2.26147Z" fill="white"/>
<path d="M12.048 4.12402L12.3608 5.08665L11.542 4.49171H12.5541L11.7353 5.08665L12.048 4.12402Z" fill="white"/>
<path d="M12.048 5.98633L12.3608 6.94895L11.542 6.35402H12.5541L11.7353 6.94895L12.048 5.98633Z" fill="white"/>
<path d="M12.0481 7.84888L12.3609 8.8115L11.542 8.21657H12.5542L11.7353 8.8115L12.0481 7.84888Z" fill="white"/>
</svg>
